<?xml version="1.0" standalone="no"?>
<!DOCTYPE svg PUBLIC "-//W3C//DTD SVG 20010904//EN"
 "http://www.w3.org/TR/2001/REC-SVG-20010904/DTD/svg10.dtd">
<svg version="1.0" xmlns="http://www.w3.org/2000/svg"
 width="160.000000pt" height="160.000000pt" viewBox="0 0 160.000000 160.000000"
 preserveAspectRatio="xMidYMid meet">
<metadata>
Created by potrace 1.14, written by Peter Selinger 2001-2017
</metadata>
<g transform="translate(0.000000,160.000000) scale(0.100000,-0.100000)"
fill="#000000" stroke="none">
<path d="M629 1574 c-355 -76 -614 -388 -623 -749 -5 -222 68 -414 218 -573
126 -133 317 -225 496 -239 l81 -6 -3 38 -3 37 -54 4 c-376 26 -669 352 -660
733 9 359 293 663 650 694 60 6 69 12 69 48 0 29 -1 29 -52 28 -29 0 -83 -7
-119 -15z"/>
<path d="M698 1429 c-109 -17 -233 -74 -313 -143 l-40 -35 27 -27 26 -27 41
35 c51 44 149 93 221 112 81 21 229 15 312 -13 404 -136 513 -649 201 -941
-223 -209 -582 -195 -788 32 -83 90 -139 216 -148 332 -4 43 -17 55 -53 48
-24 -4 -24 -7 -20 -61 7 -75 13 -102 36 -164 95 -250 325 -409 595 -409 176
-1 322 59 446 182 260 259 249 681 -24 925 -136 121 -342 182 -519 154z"/>
<path d="M1328 1332 l-26 -27 44 -50 c58 -65 120 -186 143 -277 25 -98 25
-253 1 -348 -25 -96 -77 -204 -133 -272 -26 -32 -47 -61 -47 -66 0 -5 11 -18
24 -31 l23 -22 33 38 c75 85 159 246 175 334 20 109 23 142 20 219 -6 129 -27
214 -77 314 -33 66 -104 171 -135 198 -19 17 -20 17 -45 -10z"/>
<path d="M664 1261 c-267 -76 -418 -376 -317 -633 89 -229 339 -355 574 -290
213 59 351 241 351 462 0 208 -122 381 -318 452 -79 28 -207 32 -290 9z m247
-154 c73 -31 121 -68 159 -125 109 -164 48 -386 -131 -478 -46 -24 -66 -28
-139 -28 -72 -1 -94 3 -142 26 -144 67 -220 226 -181 378 49 191 256 300 434
227z"/>
</g>
</svg>
